After the horrific death of his wife and two sons, suicide seems to be the only escape for small town attorney Kent "Mac" McClain... until he's assigned a capital punishment case that begins to transform his life and those around him forever. 
 
http://www.imdb.com/title/tt1264115/

Subtitles (srt) : Dutch, English.

Covers included.

Na de gruwelijke dood van zijn vrouw en twee zonen lijkt zelfmoord de enige uitweg voor de advocaat Kent "Mac" McClain (Matthew Modine). Tot hij een grote strafzaak toegewezen krijgt die zijn leven en dat van de mensen om hem heen voor altijd zal veranderen.
 
http://www.moviemeter.nl/film/71007

Ondertitels (srt) : Engels, Nederlands.

Hoesjes bijgevoegd.

General
Complete name                    : The Trial-AC3-XviD-DVDRip[Eng]2010 \The Trial-AC3-XviD-DVDRip[Eng]2010.avi
Format                           : AVI
Format/Info                      : Audio Video Interleave
File size                        : 1.10 GiB
Duration                         : 1h 40mn
Overall bit rate                 : 1 558 Kbps
Writing application              : VirtualDubMod 1.5.4.1 (build 2178/release)
Writing library                  : VirtualDubMod build 2178/release
Source                           : The Trial COMPLETE (2010) NTSC DVDR-KART3LDVD

Video
ID                               : 0
Format                           : MPEG-4 Visual
Format profile                   : Simple@L3
Format settings, BVOP            : No
Format settings, QPel            : No
Format settings, GMC             : No warppoints
Format settings, Matrix          : Default (H.263)
Codec ID                         : XVID
Codec ID/Hint                    : XviD
Duration                         : 1h 40mn
Bit rate                         : 1 100 Kbps
Width                            : 720 pixels
Height                           : 400 pixels
Display aspect ratio             : 16:9
Frame rate                       : 23.976 fps
Resolution                       : 8 bits
Colorimetry                      : 4:2:0
Scan type                        : Progressive
Bits/(Pixel*Frame)               : 0.159
Stream size                      : 793 MiB (71%)
Writing library                  : XviD 1.1.2 (UTC 2006-11-01)

Audio
ID                               : 1
Format                           : AC-3
Format/Info                      : Audio Coding 3
Codec ID                         : 2000
Duration                         : 1h 40mn
Bit rate mode                    : Constant
Bit rate                         : 448 Kbps
Channel(s)                       : 6 channels
Channel positions                : Front: L C R, Surround: L R, LFE
Sampling rate                    : 48.0 KHz
Stream size                      : 323 MiB (29%)
Alignment                        : Split accross interleaves
Interleave, duration             : 42 ms (1.00 video frame)
Interleave, preload duration     : 500 ms

Thanks to FGT-Releases for the source, and Dutch subs..Nice job peeps!

Blackbeard  TBS